# xmcd CD database file
#
# Track frame offsets:
#	150
#	17830
#	27535
#	40967
#	56567
#	73732
#	84362
#	97360
#	113830
#	132460
#	154967
#	161392
#	178250
#	202310
#	220157
#	234432
#	255372
#
# Disc length: 3657 seconds
#
# Revision: 3
# Processed by: cddbd v1.5.2PL0 Copyright (c) Steve Scherf et al.
# Submitted via: CDex 1.70beta2
#
DISCID=f90e4711
DTITLE=Disney Music - Bossa Disney Nova
DYEAR=2004
DGENRE=Jazz
TTITLE0=それはむずかしい（ピートとドラゴン） /マルコス・ヴァーリー&パトリシア・アルヴィ 
TTITLE1=きみもとべるよ！（ピーターパン） /ジョイス 
TTITLE2=ミッキーマウス・サンバ（ミッキーマウス・マーチ）［ミッキーマウス・クラブ］ /ジョアン・ガスパール 
TTITLE3=スーパーカリフラジリステゥックエクスピアリドーシャス（メリー・ポピンズ） /サニー・アルヴェス 
TTITLE4=いつか夢で（眠れる森の美女） /ワンダ・サー＆ジョアン・ドナート 
TTITLE5=ザ・ベアー・ネセシティ（ジャングル・ブック） /カルテート・エン・シー 
TTITLE6=クルエラ・デ・ビル（101匹わんちゃん） /マルコス・ヴァーリー 
TTITLE7=愛のうたごえ（バンビ） /カルロス・リラ 
TTITLE8=ホール・ニュー・ワールド（アラジン） /イヴァン・リンス 
TTITLE9=パート・オブ・ユア・ワールド（リトルマーメイド） /クラウデッチ・ソアレス 
TTITLE10=ハイ・ホー /ジョイス 
TTITLE11=メインストリート・エレクトリカルパレード（ディズニーランド） /ジョタ・モラエス・グループ 
TTITLE12=サークル・オブ・ライフ（ライオン・キング） /エドゥ・ロボ 
TTITLE13=ワン・ソング（白雪姫） /カルロス・リラ 
TTITLE14=ララルー（わんわん物語） /カルテート・エン・シー 
TTITLE15=ミッキーマウス・サンバ（ミッキー・マウス・マーチ） /DJ524’S　INCREDIBLE　SAMBA　BAND　MIX　remixed　by　小西康陽
TTITLE16=それはむずかしい /amusement mix remixed by 岩村 学 
EXTD=YEAR: 2004
EXTT0=
EXTT1=
EXTT2=
EXTT3=
EXTT4=
EXTT5=
EXTT6=
EXTT7=
EXTT8=
EXTT9=
EXTT10=
EXTT11=
EXTT12=
EXTT13=
EXTT14=
EXTT15=
EXTT16=
PLAYORDER=
